<svg xmlns="http://www.w3.org/2000/svg" xmlns:xlink="http://www.w3.org/1999/xlink" version="1.1" width="1000" height="1000" viewBox="0 0 1000 1000" xml:space="preserve">
<desc>Created with Fabric.js 3.5.0</desc>
<defs>
</defs>
<rect x="0" y="0" width="100%" height="100%" fill="rgba(255,255,255,0)"/>
<g transform="matrix(1.7756 0 0 1.7756 500.0081 500.0081)" id="69760">
<g style="" vector-effect="non-scaling-stroke">
		<g transform="matrix(1 0 0 1 -229.4597 -18.2621)" id="Capa_1">
<path style="stroke: none; stroke-width: 1; stroke-dasharray: none; stroke-linecap: butt; stroke-dashoffset: 0; stroke-linejoin: miter; stroke-miterlimit: 4; is-custom-font: none; font-file-url: none; fill: rgb(15,120,225); fill-rule: nonzero; opacity: 1;" transform=" translate(-26.5403, -237.7379)" d="m 26.525 189.515 l -26.318 90.233 c -1.323 4.536 3.975 8.083 7.665 5.131 l 45.209 -35.978 z" stroke-linecap="round"/>
</g>
		<g transform="matrix(1 0 0 1 51.0179 -120.7127)" id="Capa_1">
<path style="stroke: none; stroke-width: 1; stroke-dasharray: none; stroke-linecap: butt; stroke-dashoffset: 0; stroke-linejoin: miter; stroke-miterlimit: 4; is-custom-font: none; font-file-url: none; fill: rgb(125,185,232); fill-rule: nonzero; opacity: 1;" transform=" translate(-307.0179, -135.2873)" d="m 395.545 0.558 l -184.128 95.145 v 10.259 l 74.229 161.739 l 5.192 2.874 l 111.383 -263.839 c 1.76 -4.168 -2.656 -8.255 -6.676 -6.178 z" stroke-linecap="round"/>
</g>
		<g transform="matrix(1 0 0 1 51.0178 -184.2587)" id="Capa_1">
<path style="stroke: none; stroke-width: 1; stroke-dasharray: none; stroke-linecap: butt; stroke-dashoffset: 0; stroke-linejoin: miter; stroke-miterlimit: 4; is-custom-font: none; font-file-url: none; fill: rgb(69,174,226); fill-rule: nonzero; opacity: 1;" transform=" translate(-307.0178, -71.7413)" d="m 386.677 43.557 l 15.544 -36.82 c 1.76 -4.168 -2.657 -8.255 -6.676 -6.178 l -184.128 95.144 v 10.259 l 17.22 37.52 z" stroke-linecap="round"/>
</g>
		<g transform="matrix(1 0 0 1 -35.315 93.805)" id="Capa_1">
<path style="stroke: none; stroke-width: 1; stroke-dasharray: none; stroke-linecap: butt; stroke-dashoffset: 0; stroke-linejoin: miter; stroke-miterlimit: 4; is-custom-font: none; font-file-url: none; fill: rgb(19,154,214); fill-rule: nonzero; opacity: 1;" transform=" translate(-220.685, -349.805)" d="m 290.838 270.576 l -9.313 -2.96 l -175.303 88.167 l -7.562 10.244 l 244.05 65.967 z" stroke-linecap="round"/>
</g>
		<g transform="matrix(1 0 0 1 -55.9515 67.7285)" id="Capa_1">
<path style="stroke: none; stroke-width: 1; stroke-dasharray: none; stroke-linecap: butt; stroke-dashoffset: 0; stroke-linejoin: miter; stroke-miterlimit: 4; is-custom-font: none; font-file-url: none; fill: rgb(58,137,201); fill-rule: nonzero; opacity: 1;" transform=" translate(-200.0485, -323.7285)" d="m 301.437 303.559 l -10.599 -32.983 l -9.313 -2.96 l -175.303 88.167 l -7.562 10.244 l 51.105 13.814 z" stroke-linecap="round"/>
</g>
		<g transform="matrix(1 0 0 1 -162.3695 21.771)" id="Capa_1">
<path style="stroke: none; stroke-width: 1; stroke-dasharray: none; stroke-linecap: butt; stroke-dashoffset: 0; stroke-linejoin: miter; stroke-miterlimit: 4; is-custom-font: none; font-file-url: none; fill: rgb(19,154,214); fill-rule: nonzero; opacity: 1;" transform=" translate(-93.6305, -277.771)" d="m 128.529 191.316 c -0.918 -1.139 -2.303 -1.801 -3.766 -1.801 h -98.238 l 72.135 176.512 l 62.076 -135.162 z" stroke-linecap="round"/>
</g>
		<g transform="matrix(1 0 0 1 -182.6545 21.771)" id="Capa_1">
<path style="stroke: none; stroke-width: 1; stroke-dasharray: none; stroke-linecap: butt; stroke-dashoffset: 0; stroke-linejoin: miter; stroke-miterlimit: 4; is-custom-font: none; font-file-url: none; fill: rgb(58,137,201); fill-rule: nonzero; opacity: 1;" transform=" translate(-73.3455, -277.771)" d="m 67.168 189.515 h -40.643 l 72.135 176.512 l 21.506 -46.827 z" stroke-linecap="round"/>
</g>
		<g transform="matrix(1 0 0 1 113.5661 135.2879)" id="Capa_1">
<path style="stroke: none; stroke-width: 1; stroke-dasharray: none; stroke-linecap: butt; stroke-dashoffset: 0; stroke-linejoin: miter; stroke-miterlimit: 4; is-custom-font: none; font-file-url: none; fill: rgb(69,174,226); fill-rule: nonzero; opacity: 1;" transform=" translate(-369.5661, -391.2879)" d="m 447.458 504.461 l -156.62 -233.885 l 60.469 213.08 c 0.458 1.614 1.719 2.875 3.333 3.332 l 87.479 24.817 c 4.33 1.228 7.843 -3.604 5.339 -7.344 z" stroke-linecap="round"/>
</g>
		<g transform="matrix(1 0 0 1 -61.251 -25.135)" id="Capa_1">
<path style="stroke: none; stroke-width: 1; stroke-dasharray: none; stroke-linecap: butt; stroke-dashoffset: 0; stroke-linejoin: miter; stroke-miterlimit: 4; is-custom-font: none; font-file-url: none; fill: rgb(69,174,226); fill-rule: nonzero; opacity: 1;" transform=" translate(-194.749, -230.865)" d="m 211.417 95.703 l -112.757 270.324 l 192.178 -95.451 z" stroke-linecap="round"/>
</g>
		<g transform="matrix(1 0 0 1 -90.6 -25.135)" id="Capa_1">
<path style="stroke: none; stroke-width: 1; stroke-dasharray: none; stroke-linecap: butt; stroke-dashoffset: 0; stroke-linejoin: miter; stroke-miterlimit: 4; is-custom-font: none; font-file-url: none; fill: rgb(19,154,214); fill-rule: nonzero; opacity: 1;" transform=" translate(-165.4, -230.865)" d="m 232.14 141.332 l -20.723 -45.629 l -112.757 270.324 l 50.145 -24.906 z" stroke-linecap="round"/>
</g>
</g>
</g>
</svg>